<svg width="23" height="20" viewBox="0 0 23 20" fill="none" xmlns="http://www.w3.org/2000/svg">
<path d="M21.1568 10.8333C21.1568 15.4358 17.0302 19.1667 11.9396 19.1667C6.84912 19.1667 2.72241 15.4358 2.72241 10.8333C2.72241 6.231 6.84912 2.5 11.9396 2.5C17.0302 2.5 21.1568 6.231 21.1568 10.8333Z" fill="#27AE60"/>
<path d="M21.1568 10C21.1568 14.6025 17.0302 18.3334 11.9396 18.3334C6.84912 18.3334 2.72241 14.6025 2.72241 10C2.72241 5.39769 6.84912 1.66669 11.9396 1.66669C17.0302 1.66669 21.1568 5.39769 21.1568 10Z" fill="#2ECC71"/>
<path d="M6.40942 11.6667H11.0179V15.8334H12.8614V11.6667H17.4699V10H12.8614V5.83337H11.0179V10H6.40942V11.6667Z" fill="#27AE60"/>
<path d="M6.40918 10.8333H11.0178V15H12.8612V10.8333H17.4698V9.16667H12.8612V5H11.0178V9.16667H6.40918V10.8333Z" fill="#ECF0F1"/>
</svg>
