<svg viewBox="0 0 64 64" xmlns="http://www.w3.org/2000/svg"><g data-name="22 Private Parking"><path d="m44.87 44.405-1.359-4.757C43.087 38.163 41.545 37 40 37H26c-1.544 0-3.086 1.163-3.511 2.648l-1.359 4.757C20.279 45.09 18 47.272 18 51v7c0 1.654 1.346 3 3 3h2c1.654 0 3-1.346 3-3a1 1 0 1 0-2 0 1 1 0 0 1-1 1h-2c-.551 0-1-.448-1-1v-2h26v2c0 .552-.449 1-1 1h-2c-.551 0-1-.448-1-1a1 1 0 0 0-2 0c0 1.654 1.346 3 3 3h2c1.654 0 3-1.346 3-3v-7c0-3.727-2.279-5.909-3.13-6.595ZM20 51c0-2.829 1.712-4.489 2.335-5H37a1 1 0 1 0 0-2H23.326l1.087-3.803c.179-.626.936-1.197 1.588-1.197h14c.652 0 1.409.571 1.588 1.197L42.676 44h-2.674a1 1 0 1 0 0 2h3.665c.627.514 2.335 2.175 2.335 5v3h-7.219l-.811-3.242a1 1 0 0 0-.97-.758h-8a.999.999 0 0 0-.97.758L27.221 54h-7.219v-3Zm16.719 3h-7.438l.5-2h6.438l.5 2Z" fill="#ffffff" class="fill-000000"></path><path d="M25 52h-2a1 1 0 1 1 0-2h2a1 1 0 1 1 0 2ZM43 52h-2a1 1 0 1 1 0-2h2a1 1 0 1 1 0 2Z" fill="#ffffff" class="fill-000000"></path><path d="M63.917 15.601a1 1 0 0 0-.556-.533l-31-12.001a1 1 0 0 0-.722 0l-31 12a1 1 0 0 0-.568 1.304l2 5a.996.996 0 0 0 1.283.563L5 21.31V60a1 1 0 0 0 1 1h8a1 1 0 0 0 1-1V31h7a1 1 0 1 0 0-2h-8a1 1 0 0 0-1 1v29H7V20.552l25-9.482 28.646 10.865a1.001 1.001 0 0 0 1.283-.564l2-5a1 1 0 0 0-.012-.771Zm-3.48 4.116L32.355 9.066a.982.982 0 0 0-.708 0L3.563 19.717l-1.259-3.149L32 5.072l29.696 11.495-1.259 3.149Z" fill="#ffffff" class="fill-000000"></path><path d="M58 61h-6a1 1 0 0 1-1-1V31h-9a1 1 0 1 1 0-2h10a1 1 0 0 1 1 1v29h4V23a1 1 0 1 1 2 0v37a1 1 0 0 1-1 1ZM39 33H25a1 1 0 0 1-1-1V18a1 1 0 0 1 1-1h14a1 1 0 0 1 1 1v14a1 1 0 0 1-1 1Zm-13-2h12V19H26v12Z" fill="#ffffff" class="fill-000000"></path><path d="M32 21h-2a1 1 0 0 0-1 1v6a1 1 0 1 0 2 0v-1h1c1.654 0 3-1.346 3-3s-1.346-3-3-3Zm0 4h-1v-2h1a1.001 1.001 0 0 1 0 2Z" fill="#ffffff" class="fill-000000"></path></g></svg>