<svg id="Icons" version="1.1" viewBox="0 0 32 32" xml:space="preserve" xmlns="http://www.w3.org/2000/svg" enable-background="new 0 0 32 32"><path d="M24 13H4l2-4.6C6.6 7 8 6 9.6 6h8.7c1.6 0 3 1 3.7 2.4l2 4.6zM8 23H2v2c0 1.1.9 2 2 2h2c1.1 0 2-.9 2-2v-2zM1 12h3.4M24 12h3M4 18h3" fill="none" stroke="#ffffff" stroke-width="2" stroke-linecap="round" stroke-linejoin="round" stroke-miterlimit="10" class="stroke-000000"></path><circle cx="24" cy="23" r="7" fill="none" stroke="#ffffff" stroke-width="2" stroke-linecap="round" stroke-linejoin="round" stroke-miterlimit="10" class="stroke-000000"></circle><path d="M24 20v6M21 23h6M17.6 20.1c-.3-.7-1-1.1-1.8-1.1h-3.5c-.8 0-1.5.4-1.8 1.1L9 23" fill="none" stroke="#ffffff" stroke-width="2" stroke-linecap="round" stroke-linejoin="round" stroke-miterlimit="10" class="stroke-000000"></path><path d="M17 23H3c-1.1 0-2-.9-2-2v-4c0-2.2 1.8-4 4-4h18c2.1 0 3.8 1.6 4 3.7" fill="none" stroke="#ffffff" stroke-width="2" stroke-linecap="round" stroke-linejoin="round" stroke-miterlimit="10" class="stroke-000000"></path></svg>