<svg width="114" height="40" viewBox="0 0 114 40" fill="none" xmlns="http://www.w3.org/2000/svg">
<path d="M89.9884 5.88862C89.0969 5.02678 88.0196 4.46362 86.8728 4.25158C86.8296 4.2436 86.7864 4.23562 86.7433 4.22764C86.2419 4.13564 85.8776 3.69959 85.8776 3.1899C85.8776 2.72158 85.4979 2.34196 85.0296 2.34196C84.3814 2.34196 83.7355 2.42165 83.1067 2.57908L80.4529 3.24348C63.9768 1.11555 53.0627 3.30492 49.5344 4.20598C48.8059 4.3918 48.0934 4.6483 47.4014 4.97092L34.7531 10.8693C33.9745 11.2318 33.1697 11.51 32.3466 11.7015L26.7298 13.0022C22.5585 13.9678 19.1055 17.3502 17.579 21.9638L17.3031 26.4565C17.1242 29.3886 19.1214 31.8818 21.6511 31.8818H24.1853C25.2079 35.2265 28.319 37.6581 31.9989 37.6581C35.6777 37.6581 38.7887 35.2265 39.8113 31.8818H75.3519C76.3745 35.2265 79.4856 37.6581 83.1644 37.6581C86.8431 37.6581 89.9542 35.2265 90.9779 31.8818H92.1396C94.3683 31.8818 96.239 29.9277 96.4739 27.3514C96.8136 23.6145 96.9549 18.3386 95.6645 14.6039C94.2384 10.4771 91.6449 7.48678 89.9884 5.88862ZM21.2019 26.0769C20.6354 26.0769 20.1759 25.3289 20.1759 24.4056C20.1759 23.4821 20.6354 22.7333 21.2019 22.7333C21.7685 22.7333 22.2279 23.4821 22.2279 24.4056C22.2279 25.3289 21.7686 26.0769 21.2019 26.0769ZM22.4856 20.9194C21.8392 21.0972 21.2886 20.4325 21.577 19.8273C22.1105 18.7078 23.0613 17.2577 24.5832 16.6056C26.4516 15.8054 27.9838 16.129 28.7294 16.3925C29.052 16.5076 29.264 16.8211 29.2435 17.1631C29.2059 17.8072 28.9289 18.84 27.6236 19.3416C26.3627 19.8273 24.0166 20.4976 22.4856 20.9194ZM36.7481 31.8818C35.8703 33.6168 34.0714 34.8081 31.9989 34.8081C29.9252 34.8081 28.1263 33.6168 27.2485 31.8818C26.8837 31.1623 26.6785 30.3485 26.6785 29.4878C26.6785 26.5545 29.0645 24.1674 31.9989 24.1674C34.9321 24.1674 37.3181 26.5544 37.3181 29.4878C37.3181 30.3483 37.1129 31.1623 36.7481 31.8818ZM44.8696 12.9269C44.7339 13.2575 44.4147 13.4706 44.0568 13.4706H35.916C35.9297 13.4637 35.9434 13.4581 35.9571 13.4524L46.7267 8.43071L44.8696 12.9269ZM59.9426 18.1071H56.7882C56.2535 18.1071 55.8192 17.6727 55.8192 17.1381C55.8192 16.8701 55.9275 16.6286 56.103 16.453C56.2786 16.2774 56.5203 16.1691 56.7882 16.1691H59.9426C60.4772 16.1691 60.9116 16.6023 60.9116 17.1381C60.9116 17.6727 60.4772 18.1071 59.9426 18.1071ZM61.6584 13.2016L52.2397 13.4102C51.9422 13.4193 51.6731 13.2803 51.501 13.0374C51.33 12.7934 51.2924 12.4947 51.3984 12.2166L53.6807 6.24532C55.9675 5.8486 59.123 5.44151 63.048 5.2729L61.6584 13.2016ZM71.8044 12.9782L63.634 13.1583L65.0259 5.21134C65.6244 5.1988 66.2355 5.19196 66.8636 5.19196C68.8335 5.19196 70.8354 5.25466 72.8623 5.37892C72.4905 8.20384 72.0814 11.1599 71.8044 12.9782ZM74.799 5.51686C76.4919 5.65252 78.2008 5.83036 79.9233 6.0505L83.4893 9.955C83.6785 10.1624 83.7572 10.4395 83.7036 10.7154C83.65 10.9901 83.4756 11.2181 83.2225 11.3411L80.3919 12.708C80.2779 12.7638 80.1559 12.7935 80.0294 12.7959L73.7708 12.9338C74.0706 10.9628 74.457 8.11606 74.799 5.51686ZM75.4089 18.1071C74.8731 18.1071 74.4399 17.6727 74.4399 17.1381C74.4399 16.8701 74.5482 16.6286 74.7238 16.453C74.8994 16.2774 75.141 16.1691 75.4089 16.1691H78.5622C79.098 16.1691 79.5312 16.6023 79.5312 17.1381C79.5312 17.6727 79.098 18.1071 78.5622 18.1071H75.4089ZM87.9149 31.8818C87.0371 33.6168 85.2381 34.8081 83.1645 34.8081C81.092 34.8081 79.293 33.6168 78.4152 31.8818C78.0504 31.1623 77.8452 30.3485 77.8452 29.4878C77.8452 26.5545 80.2313 24.1674 83.1645 24.1674C86.0988 24.1674 88.4849 26.5544 88.4849 29.4878C88.4849 30.3483 88.2795 31.1623 87.9149 31.8818ZM93.8109 22.9281C93.5316 23.1264 93.1532 23.1128 92.8853 22.8996C92.2662 22.406 91.1798 21.2796 90.8697 19.271C90.6167 17.6328 91.3428 16.0596 92.0109 15.0142C92.3711 14.4488 93.2261 14.5628 93.4176 15.2057C93.8714 16.7288 94.544 19.0726 94.8005 20.3996C95.0661 21.7734 94.3364 22.5553 93.8109 22.9281Z" fill="#1B56ED"/>
<path d="M31.9991 26.4098C30.2982 26.4098 28.9199 27.788 28.9199 29.4878C28.9199 30.4544 29.3657 31.3175 30.0645 31.8818C30.5923 32.3104 31.266 32.5658 31.9991 32.5658C32.7321 32.5658 33.4047 32.3104 33.9325 31.8818C34.6313 31.3175 35.0771 30.4544 35.0771 29.4878C35.0771 27.7879 33.6988 26.4098 31.9991 26.4098Z" fill="#1B56ED"/>
<path d="M83.1644 26.4098C81.4647 26.4098 80.0864 27.788 80.0864 29.4878C80.0864 30.4544 80.5322 31.3175 81.231 31.8818C81.7588 32.3104 82.4314 32.5658 83.1644 32.5658C83.8974 32.5658 84.5712 32.3104 85.099 31.8818C85.7967 31.3175 86.2424 30.4544 86.2424 29.4878C86.2424 27.7879 84.8654 26.4098 83.1644 26.4098Z" fill="#1B56ED"/>
</svg>
