<svg width="55" height="57" viewBox="0 0 55 57" fill="none" xmlns="http://www.w3.org/2000/svg">
<path d="M52.3813 0.455566H2.27745C0.910979 0.455566 0 1.47989 0 3.01636V33.7459C0 35.2824 0.910979 36.3067 2.27745 36.3067H52.3813C53.7478 36.3067 54.6588 35.2824 54.6588 33.7459V3.01636C54.6588 1.47989 53.7478 0.455566 52.3813 0.455566ZM5.69362 23.5027C5.23813 23.5027 4.78264 23.5028 4.5549 23.7588V13.0035C4.78264 13.2596 5.23813 13.2596 5.69362 13.2596C8.88205 13.2596 11.3872 10.4427 11.3872 6.85756C11.3872 6.3454 11.3872 5.83324 11.1595 5.57716H43.2715C43.2715 5.83324 43.2715 6.3454 43.2715 6.85756C43.2715 10.4427 45.7767 13.2596 48.9651 13.2596C49.4206 13.2596 49.8761 13.2596 50.1039 13.0035V23.5027C49.8761 23.5027 49.4206 23.2467 48.9651 23.2467C45.7767 23.2467 43.2715 26.0635 43.2715 29.6487C43.2715 30.1608 43.2715 30.673 43.4993 30.9291H11.1595C11.3872 30.9291 11.3872 30.4169 11.3872 29.9047C11.3872 26.3196 8.88205 23.5027 5.69362 23.5027ZM20.497 18.3812C20.497 14.0278 23.4577 10.6988 27.3294 10.6988C31.201 10.6988 34.1617 14.0278 34.1617 18.3812C34.1617 22.7345 31.201 26.0635 27.3294 26.0635C23.4577 26.0635 20.497 22.7345 20.497 18.3812ZM4.5549 43.9891V41.4283H50.1039V43.9891C50.1039 45.5256 49.1929 46.5499 47.8264 46.5499H6.83235C5.46588 46.5499 4.5549 45.5256 4.5549 43.9891ZM10.0208 54.2323V51.6715H44.1825V54.2323C44.1825 55.7688 43.2715 56.7931 41.9051 56.7931H12.2982C10.9318 56.7931 10.0208 55.7688 10.0208 54.2323Z" fill="#17B978"/>
</svg>
