<svg viewBox="0 0 6.888 7.408" xmlns="http://www.w3.org/2000/svg"><path d="M13 2a1 1 0 0 0-.996.996l-.008 9.006c-.03 1.363 2.03 1.363 2 0V4H28v24H13.996v-6.998c.03-1.363-2.03-1.363-2 0l.008 8.002A1 1 0 0 0 13 30h16.004a1 1 0 0 0 .996-.996V2.996A1 1 0 0 0 29.004 2Zm4.295 8.71 3.228 3.23c-7.11.363-13.36 3.176-16.449 9.689-.581 1.27 1.393 2.065 1.854.746 3.092-5.541 9.578-8.537 14.98-8.434l-3.68 4.418c-.855 1.025.682 2.308 1.538 1.284l5.004-6a1 1 0 0 0-.06-1.352l-5.005-4.998c-1.07-1.071-2.445.383-1.41 1.418Z" style="line-height:normal;font-variant-ligatures:normal;font-variant-position:normal;font-variant-caps:normal;font-variant-numeric:normal;font-variant-alternates:normal;font-feature-settings:normal;text-indent:0;text-align:start;text-decoration-line:none;text-decoration-style:solid;text-decoration-color:#000;text-transform:none;text-orientation:mixed;white-space:normal;shape-padding:0;isolation:auto;mix-blend-mode:normal;solid-color:#000;solid-opacity:1" transform="matrix(.26458 0 0 .26458 -1.05 -.53)" color="#000000" font-style="normal" font-variant="normal" font-weight="400" font-stretch="normal" font-size="medium" font-family="sans-serif" text-decoration="none" letter-spacing="normal" word-spacing="normal" writing-mode="lr-tb" direction="ltr" dominant-baseline="auto" baseline-shift="baseline" text-anchor="start" clip-rule="nonzero" display="inline" overflow="visible" visibility="visible" opacity="1" color-interpolation="sRGB" color-interpolation-filters="linearRGB" vector-effect="none" fill="#ffffff" fill-opacity="1" fill-rule="nonzero" stroke="none" stroke-width="2" stroke-linecap="round" stroke-linejoin="miter" stroke-miterlimit="4" stroke-dasharray="none" stroke-dashoffset="0" stroke-opacity="1" color-rendering="auto" image-rendering="auto" shape-rendering="auto" text-rendering="auto" enable-background="accumulate" class="fill-000000"></path></svg>