<svg id="Icons" version="1.1" viewBox="0 0 32 32" xml:space="preserve" xmlns="http://www.w3.org/2000/svg" enable-background="new 0 0 32 32"><path d="M3 6v15c0 1.1.9 2 2 2h22c1.1 0 2-.9 2-2V6c0-1.1-.9-2-2-2H5c-1.1 0-2 .9-2 2zM9 29h14M13 23c0 2.1-.7 4.6-1.8 6M20.8 29c-1.1-1.4-1.8-3.9-1.8-6" fill="none" stroke="#ffffff" stroke-width="2" stroke-linecap="round" stroke-linejoin="round" stroke-miterlimit="10" class="stroke-000000"></path><path d="M11 10c-2.2 0-4 1.8-4 4s1.8 4 4 4 4-1.8 4-4" fill="none" stroke="#ffffff" stroke-width="2" stroke-linecap="round" stroke-linejoin="round" stroke-miterlimit="10" class="stroke-000000"></path><path d="M12 9v4h4c0-2.2-1.8-4-4-4zM20 12h5M23 15h2" fill="none" stroke="#ffffff" stroke-width="2" stroke-linecap="round" stroke-linejoin="round" stroke-miterlimit="10" class="stroke-000000"></path></svg>