<svg width="34" height="32" viewBox="0 0 34 32" fill="none" xmlns="http://www.w3.org/2000/svg">
<path d="M24.5073 11H20.9872L23.9195 7.824C24.2983 7.414 24.5073 6.8875 24.5073 6.3425V6.25C24.5073 5.0095 23.4419 4 22.1328 4C20.8237 4 19.7583 5.0095 19.7583 6.25V7H20.8136V6.25C20.8136 5.5605 21.4051 5 22.1328 5C22.8604 5 23.4519 5.5605 23.4519 6.25V6.3425C23.4519 6.6455 23.3359 6.9375 23.1253 7.1655L19.7583 10.812V12H24.5073V11Z" fill="black"/>
<path d="M28.7285 12H29.7838V10.5H30.8391V9.5H29.7838V4H28.4024L25.5625 9.382V10.5H28.7285V12ZM26.6801 9.5L28.7285 5.618V9.5H26.6801Z" fill="black"/>
<path d="M26.8317 16.3135C30.6261 15.5305 33.4776 12.3265 33.4776 8.5C33.4776 4.089 29.69 0.5 25.035 0.5C20.9968 0.5 17.6155 3.202 16.7892 6.7975C15.8578 6.6035 14.9075 6.5 13.954 6.5C6.68019 6.5 0.762451 12.1075 0.762451 19C0.762451 25.8925 6.68019 31.5 13.954 31.5C21.2279 31.5 27.1456 25.8925 27.1456 19C27.1456 18.0965 27.0364 17.196 26.8317 16.3135ZM25.035 1.5C29.1085 1.5 32.4222 4.64 32.4222 8.5C32.4222 12.36 29.1085 15.5 25.035 15.5C20.9614 15.5 17.6477 12.36 17.6477 8.5C17.6477 4.64 20.9614 1.5 25.035 1.5ZM23.9591 18.5H22.9243V19.5H23.9527C23.8287 21.742 22.8847 23.7765 21.3951 25.344L20.6696 24.6565L19.9235 25.3635L20.649 26.051C18.9948 27.463 16.8477 28.357 14.4817 28.4745V27.5H13.4264V28.4745C11.0603 28.357 8.91327 27.4625 7.25904 26.051L7.98458 25.3635L7.23846 24.6565L6.51293 25.344C5.0228 23.7765 4.07934 21.742 3.95534 19.5H4.98376V18.5H3.95534C4.07934 16.258 5.02333 14.2235 6.51293 12.656L7.23846 13.3435L7.98458 12.6365L7.25904 11.949C8.91327 10.537 11.0603 9.643 13.4264 9.5255V10.5H14.4817V9.5195C15.2405 9.5575 15.9919 9.6785 16.7269 9.8795C17.3369 13.185 20.0902 15.794 23.5791 16.3725C23.7907 17.069 23.9184 17.781 23.9591 18.5ZM13.954 30.5C7.26168 30.5 1.81778 25.3415 1.81778 19C1.81778 12.6585 7.26168 7.5 13.954 7.5C14.8542 7.5 15.7518 7.6005 16.6303 7.7885C16.6082 8.0235 16.5924 8.26 16.5924 8.5C16.5924 8.6045 16.6045 8.7065 16.6087 8.8105C15.7381 8.606 14.8484 8.5 13.954 8.5C7.84422 8.5 2.8731 13.2105 2.8731 19C2.8731 24.7895 7.84422 29.5 13.954 29.5C20.0638 29.5 25.035 24.7895 25.035 19C25.035 18.1525 24.9231 17.3095 24.7073 16.4845C24.817 16.4885 24.9247 16.5 25.035 16.5C25.2882 16.5 25.5378 16.485 25.7858 16.464C25.9842 17.2965 26.0903 18.147 26.0903 19C26.0903 25.3415 20.6464 30.5 13.954 30.5Z" fill="black"/>
<path d="M15.5371 19C15.5371 18.349 15.0944 17.799 14.4817 17.592V11.5H13.4264V17.592C12.8138 17.799 12.3711 18.349 12.3711 19C12.3711 19.827 13.0813 20.5 13.9541 20.5C14.1979 20.5 14.4258 20.4435 14.6321 20.3495L18.33 23.8535L19.0761 23.1465L15.3782 19.6425C15.4774 19.447 15.5371 19.231 15.5371 19ZM13.4264 19C13.4264 18.724 13.6628 18.5 13.9541 18.5C14.2454 18.5 14.4817 18.724 14.4817 19C14.4817 19.276 14.2454 19.5 13.9541 19.5C13.6628 19.5 13.4264 19.276 13.4264 19Z" fill="black"/>
<path d="M29.7838 17.5C28.9111 17.5 28.2008 18.173 28.2008 19C28.2008 19.6255 28.6077 20.162 29.1833 20.3865C28.8525 23.6785 27.3371 26.777 24.8818 29.15L25.6353 29.85C28.2731 27.301 29.8957 23.9685 30.2392 20.429C30.8893 20.2425 31.3668 19.6765 31.3668 19C31.3668 18.173 30.6566 17.5 29.7838 17.5ZM29.7838 19.5C29.4926 19.5 29.2562 19.276 29.2562 19C29.2562 18.724 29.4926 18.5 29.7838 18.5C30.0751 18.5 30.3115 18.724 30.3115 19C30.3115 19.276 30.0751 19.5 29.7838 19.5Z" fill="black"/>
<path d="M3.5501 8.3665C6.00796 6.206 9.17024 4.8775 12.4935 4.577C12.733 5.1185 13.2971 5.5 13.954 5.5C14.8268 5.5 15.537 4.827 15.537 4C15.537 3.173 14.8268 2.5 13.954 2.5C13.2406 2.5 12.6428 2.9525 12.446 3.5685C8.87317 3.8805 5.47343 5.313 2.83301 7.6335L3.5501 8.3665ZM13.954 3.5C14.2453 3.5 14.4817 3.724 14.4817 4C14.4817 4.276 14.2453 4.5 13.954 4.5C13.6628 4.5 13.4264 4.276 13.4264 4C13.4264 3.724 13.6628 3.5 13.954 3.5Z" fill="black"/>
</svg>
